<svg xmlns="http://www.w3.org/2000/svg" viewBox="0 0 240 240"><defs><style>.cls-1{fill:#efefef;}.cls-2{fill:#555;}</style></defs><g id="图层_2" data-name="图层 2"><g id="图层_1-2" data-name="图层 1"><rect class="cls-1" width="240" height="240" rx="120"/><path class="cls-2" d="M172.91,164.18,128.7,120l44.19-44.17.3-.34a5.59,5.59,0,0,0-.29-7.62A5.53,5.53,0,0,0,169,66.24h0A5.56,5.56,0,0,0,165,67.89l-44.2,44.2L75,66.25l-.33-.31a5.58,5.58,0,0,0-7.57,8.19L112.92,120,67.08,165.83l-.31.33a5.61,5.61,0,0,0,.3,7.58,5.58,5.58,0,0,0,7.89,0l45.85-45.86L165,172.05l.34.32a5.58,5.58,0,0,0,7.58-8.19Z"/></g></g></svg>