<svg xmlns="http://www.w3.org/2000/svg" viewBox="0 0 240 240"><defs><style>.cls-1{fill:#efefef;}.cls-2{fill:#555;}</style></defs><g id="图层_2" data-name="图层 2"><g id="图层_1-2" data-name="图层 1"><rect class="cls-1" width="240" height="240" rx="120"/><path class="cls-2" d="M69.55,93.4S79.79,77.62,95.93,69.17s36.1-6,49.15,2.17,17.47,15.13,17.47,15.13l11.25-6.42s2.32-1.15,2.32,1.55v40.26s0,3.59-2.72,2.3c-2.27-1.07-27-15.13-34.77-19.56-4.27-1.91-.53-3.46-.53-3.46L149,94.93a46.88,46.88,0,0,0-15.25-11.88c-9.71-5-18.78-5.65-29.92-1.44-7.25,2.74-15.8,9.76-22,20.11L69.56,93.4Zm100.88,53.21s-10.23,15.77-26.38,24.22-36.08,6-49.13-2.17-17.48-15.14-17.48-15.14l-11.25,6.42s-2.31,1.15-2.31-1.53V118.13s0-3.58,2.72-2.31c2.27,1.07,27,15.13,34.77,19.58,4.27,1.89.52,3.46.52,3.46L91,145.07a46.92,46.92,0,0,0,15.26,11.86c9.7,5.06,18.78,5.66,29.91,1.45,7.25-2.73,15.8-9.75,21.95-20.11l12.29,8.32Z"/></g></g></svg>