<svg xmlns="http://www.w3.org/2000/svg" viewBox="0 0 892 892"><g id="图层_2" data-name="图层 2"><g id="图层_1-2" data-name="图层 1"><path d="M593.07,298a36.44,36.44,0,0,0,51.52.9l.89-.9.06,0L761.36,182.15a36.43,36.43,0,1,0-50.56-52.46l-.9.89L594,246.46A36.5,36.5,0,0,0,593.07,298Z"/><path d="M892,446a36.47,36.47,0,0,0-36.43-36.43H691.74a36.43,36.43,0,0,0,0,72.86H855.57A36.47,36.47,0,0,0,892,446Z"/><path d="M446,892a36.47,36.47,0,0,0,36.43-36.43V691.74a36.43,36.43,0,0,0-72.86,0V855.57A36.47,36.47,0,0,0,446,892Z"/><path d="M594,645.48,709.85,761.36a36.43,36.43,0,1,0,52.46-50.56l-.89-.89L645.48,594a36.43,36.43,0,0,0-52.41,50.62C593.37,644.89,593.66,645.19,594,645.48Z"/><path d="M36.43,482.43H200.26a36.43,36.43,0,0,0,0-72.86H36.43a36.43,36.43,0,0,0,0,72.86Z"/><path d="M482.43,36.43a36.43,36.43,0,0,0-72.86,0V200.26a36.43,36.43,0,0,0,72.86,0Z"/><path d="M181.2,762.31c.3-.29.6-.59.89-.89L298,645.54a36.44,36.44,0,0,0-24.62-62.69h-.65a36.2,36.2,0,0,0-25.3,10.22l-.9.9,0,0L130.64,709.85a36.43,36.43,0,1,0,50.56,52.46Z"/><path d="M129.69,181.2c.29.3.59.6.89.89L246.46,298a36.44,36.44,0,1,0,52.47-50.57c-.29-.3-.59-.6-.9-.89L182.1,130.58a36.43,36.43,0,0,0-52.41,50.62Z"/></g></g></svg>